<?xml version="1.0" encoding="UTF-8"?>
<!DOCTYPE svg PUBLIC "-//W3C//DTD SVG 1.1//EN" "http://www.w3.org/Graphics/SVG/1.1/DTD/svg11.dtd">
<!-- Creator: CorelDRAW X7 -->
<svg xmlns="http://www.w3.org/2000/svg" xml:space="preserve" width="53px" height="37px" version="1.1" style="shape-rendering:geometricPrecision; text-rendering:geometricPrecision; image-rendering:optimizeQuality; fill-rule:evenodd; clip-rule:evenodd"
viewBox="0 0 1830 1283"
 xmlns:xlink="http://www.w3.org/1999/xlink">
 <defs>
  <style type="text/css">
   <![CDATA[
    .fil2 {fill:none}
    .fil0 {fill:#373435}
    .fil1 {fill:#373435;fill-rule:nonzero}
   ]]>
  </style>
 </defs>
 <g id="Layer_x0020_1">
  <metadata id="CorelCorpID_0Corel-Layer"/>
  <polygon class="fil0" points="280,1003 280,173 186,173 186,1003 33,1003 233,1231 433,1003 "/>
  <path class="fil1" d="M753 191l0 -119 0 -36 36 0 120 0 36 0 0 36 0 119 313 0 0 -119 0 -36 36 0 119 0 36 0 0 36 0 119 287 0 36 0 0 36 0 118 0 37 0 36 0 791 0 36 -36 0 -1286 0 -36 0 0 -36 0 -791 0 -36 0 -37 0 -118 0 -36 36 0 303 0zm666 521l206 0 0 198 -206 0 0 -198zm0 -211l206 0 0 198 -206 0 0 -198zm-219 422l205 0 0 198 -205 0 0 -198zm0 -211l205 0 0 198 -205 0 0 -198zm0 -211l205 0 0 198 -205 0 0 -198zm-219 422l205 0 0 198 -205 0 0 -198zm0 -211l205 0 0 198 -205 0 0 -198zm0 -211l205 0 0 198 -205 0 0 -198zm-219 422l205 0 0 198 -205 0 0 -198zm0 -211l205 0 0 198 -205 0 0 -198zm-220 211l205 0 0 198 -205 0 0 -198zm0 -211l205 0 0 198 -205 0 0 -198zm284 -521l47 0 0 -82 -47 0 0 82zm504 0l47 0 0 -82 -47 0 0 82zm370 227l-251 0 -36 0 -119 0 -36 0 -313 0 -36 0 -120 0 -36 0 -266 0 0 755 1213 0 0 -755z"/>
  <rect class="fil2" width="1830" height="1283"/>
 </g>
</svg>
