<?xml version="1.0" encoding="UTF-8"?>
<!DOCTYPE svg PUBLIC "-//W3C//DTD SVG 1.1//EN" "http://www.w3.org/Graphics/SVG/1.1/DTD/svg11.dtd">
<!-- Creator: CorelDRAW 2018 (64-Bit Evaluation Version) -->
<svg xmlns="http://www.w3.org/2000/svg" xml:space="preserve" width="0.336685in" height="0.25989in" version="1.1" style="shape-rendering:geometricPrecision; text-rendering:geometricPrecision; image-rendering:optimizeQuality; fill-rule:evenodd; clip-rule:evenodd"
viewBox="0 0 185.74 143.37"
 xmlns:xlink="http://www.w3.org/1999/xlink">
 <defs>
  <style type="text/css">
   <![CDATA[
    .fil0 {fill:#FEFEFE}
   ]]>
  </style>
 </defs>
 <g id="Layer_x0020_1">
  <metadata id="CorelCorpID_0Corel-Layer"/>
  <path class="fil0" d="M118.95 94.36l-12.96 0 -8.97 -25.42 -39.87 0 -8.97 25.42 -12.29 0 33.39 -91.71 16.28 0 33.39 91.71 -0 0zm-85.56 18.11l0 -112.47 -12.63 0 0 112.47 -20.77 0 27.08 30.9 27.08 -30.9 -20.77 0zm152.34 28.91l-71.6 0 0 -11.46 56.32 -69.61 -54.16 0 0 -10.8 67.95 0 0 10.96 -56.98 69.94 58.48 0 0 10.96 0 0zm-92.7 -83.06l-15.95 -45.02 -16.12 45.02 32.06 0z"/>
 </g>
</svg>
