<?xml version="1.0" encoding="UTF-8"?>
<!DOCTYPE svg PUBLIC "-//W3C//DTD SVG 1.1//EN" "http://www.w3.org/Graphics/SVG/1.1/DTD/svg11.dtd">
<!-- Creator: CorelDRAW 2018 (64-Bit) -->
<svg xmlns="http://www.w3.org/2000/svg" xml:space="preserve" width="0.697913in" height="0.380193in" version="1.1" style="shape-rendering:geometricPrecision; text-rendering:geometricPrecision; image-rendering:optimizeQuality; fill-rule:evenodd; clip-rule:evenodd"
viewBox="0 0 374.68 204.11"
 xmlns:xlink="http://www.w3.org/1999/xlink">
 <defs>
  <style type="text/css">
   <![CDATA[
    .str0 {stroke:#FEFEFE;stroke-width:11.2;stroke-miterlimit:2.61313}
    .fil0 {fill:none}
    .fil1 {fill:#FEFEFE;fill-rule:nonzero}
   ]]>
  </style>
 </defs>
 <g id="Layer_x0020_1">
  <metadata id="CorelCorpID_0Corel-Layer"/>
  <rect class="fil0" x="-0" width="374.68" height="204.11"/>
  <path class="fil1" d="M60.24 148.22l37.7 -98.27 14.3 0 40.01 98.27 -14.8 0 -11.37 -29.78 -41.38 0 -10.66 29.78 -13.79 0zm28.27 -40.35l33.49 0 -10.25 -27.24c-3.09,-8.28 -5.42,-15.12 -7.04,-20.52 -1.35,6.4 -3.16,12.7 -5.42,18.92l-10.78 28.85z"/>
  <path id="1" class="fil1" d="M223.42 148.22l0 -12.01 50.33 -63c3.61,-4.44 7,-8.35 10.22,-11.73l-54.79 0 0 -11.53 70.27 0 0 11.53 -55.2 68.17 -5.9 7.04 62.75 0 0 11.53 -77.68 0z"/>
  <line class="fil0 str0" x1="155" y1="98.4" x2="211.11" y2= "98.4" />
 </g>
</svg>
