<?xml version="1.0" encoding="UTF-8"?>
<!DOCTYPE svg PUBLIC "-//W3C//DTD SVG 1.1//EN" "http://www.w3.org/Graphics/SVG/1.1/DTD/svg11.dtd">
<!-- Creator: CorelDRAW 2018 (64-Bit Evaluation Version) -->
<svg xmlns="http://www.w3.org/2000/svg" xml:space="preserve" width="0.316268in" height="0.313776in" version="1.1" style="shape-rendering:geometricPrecision; text-rendering:geometricPrecision; image-rendering:optimizeQuality; fill-rule:evenodd; clip-rule:evenodd"
viewBox="0 0 21.02 20.85"
 xmlns:xlink="http://www.w3.org/1999/xlink">
 <defs>
  <style type="text/css">
   <![CDATA[
    .str1 {stroke:#FEFEFE;stroke-width:0.92;stroke-linecap:round;stroke-miterlimit:2.61313}
    .str0 {stroke:#FEFEFE;stroke-width:0.92;stroke-linecap:round;stroke-linejoin:round;stroke-miterlimit:2.61313}
    .fil1 {fill:none}
    .fil0 {fill:#FEFEFE}
   ]]>
  </style>
 </defs>
 <g id="Layer_x0020_1">
  <metadata id="CorelCorpID_0Corel-Layer"/>
  <path class="fil0" d="M14.28 6.11c0.52,-0.28 0.89,0.57 0.35,0.78 -0.56,0.22 -0.84,-0.52 -0.35,-0.78zm0.63 -1.77c0.66,-0.14 1.18,0.12 1.47,0.49 0.35,0.45 0.28,0.92 0.28,1.6 -0,1.3 0.02,2.61 -0.01,3.91 -0.03,1.49 -0.65,1.82 -1.34,2.53l-5.85 5.78c-0.57,0.54 -1.23,1.64 -2.54,1.24 -0.73,-0.22 -5.7,-5.37 -5.89,-5.73 -0.65,-1.23 0.55,-2.09 1,-2.55l5.83 -5.8c0.59,-0.59 1.16,-1.45 2.41,-1.51 0.83,-0.04 3.06,-0.11 3.79,0.02l-0.02 0.89c-0.46,0.37 -0.93,0.54 -0.85,1.4 0.05,0.57 0.5,1.1 1.19,1.13 1.45,0.07 1.96,-1.77 0.49,-2.5l0.05 -0.92zm0.16 -0.91c0.17,-1.11 1.09,-2.36 2.04,-2.57 2.23,-0.48 3.7,3.01 2.76,5.65 -0.31,0.87 -1.22,2.36 -2.35,2.08 -0.05,-2.8 0.57,-4.86 -2.45,-5.16zm-0.9 0.01c-6.82,0.47 -3.51,-1.57 -11.95,6.79 -0.44,0.44 -1.61,1.47 -1.87,1.94 -1.15,2.08 0.69,3.43 2.13,4.85 0.67,0.66 3.17,3.28 3.92,3.61 1.99,0.88 3.18,-0.89 4.66,-2.36l5.67 -5.66c0.83,-0.78 0.75,-1.66 0.79,-3.02 1.03,-0.29 1.32,-0.28 1.99,-0.91 1.67,-1.58 1.92,-4.63 0.87,-6.64 -1.76,-3.37 -5.51,-2.26 -6.21,1.42z"/>
  <line class="fil1 str0" x1="6.98" y1="9.18" x2="10.7" y2= "14.69" />
  <line class="fil1 str1" x1="5.48" y1="13.59" x2="9.23" y2= "9.84" />
  <line class="fil1 str1" x1="6.87" y1="15.76" x2="10.61" y2= "12.01" />
  <line class="fil1 str0" x1="5.45" y1="10.82" x2="9.17" y2= "16.33" />
 </g>
</svg>
