<?xml version="1.0" encoding="UTF-8"?>
<!DOCTYPE svg PUBLIC "-//W3C//DTD SVG 1.1//EN" "http://www.w3.org/Graphics/SVG/1.1/DTD/svg11.dtd">
<!-- Creator: CorelDRAW X7 -->
<svg xmlns="http://www.w3.org/2000/svg" xml:space="preserve" width="53px" height="37px" version="1.1" style="shape-rendering:geometricPrecision; text-rendering:geometricPrecision; image-rendering:optimizeQuality; fill-rule:evenodd; clip-rule:evenodd"
viewBox="0 0 1493 1047"
 xmlns:xlink="http://www.w3.org/1999/xlink">
 <defs>
  <style type="text/css">
   <![CDATA[
    .fil1 {fill:none}
    .fil0 {fill:#373435}
   ]]>
  </style>
 </defs>
 <g id="Layer_x0020_1">
  <metadata id="CorelCorpID_0Corel-Layer"/>
  <path class="fil0" d="M939 677l-78 0 -54 -153 -240 0 -54 153 -74 0 201 -552 98 0 201 552zm-515 109l0 -677 -76 0 0 677 -125 0 163 186 163 -186 -125 0zm917 174l-431 0 0 -69 339 -419 -326 0 0 -65 409 0 0 66 -343 421 352 0 0 66zm-558 -500l-96 -271 -97 271 193 0z"/>
  <rect class="fil1" width="1493" height="1047"/>
 </g>
</svg>
