<?xml version="1.0" encoding="UTF-8"?>
<!DOCTYPE svg PUBLIC "-//W3C//DTD SVG 1.1//EN" "http://www.w3.org/Graphics/SVG/1.1/DTD/svg11.dtd">
<!-- Creator: CorelDRAW X7 -->
<svg xmlns="http://www.w3.org/2000/svg" xml:space="preserve" width="80px" height="80px" version="1.1" style="shape-rendering:geometricPrecision; text-rendering:geometricPrecision; image-rendering:optimizeQuality; fill-rule:evenodd; clip-rule:evenodd"
viewBox="0 0 7362 7362"
 xmlns:xlink="http://www.w3.org/1999/xlink">
 <defs>
  <style type="text/css">
   <![CDATA[
    .fil0 {fill:none}
    /*.fil1 {fill:#373435;fill-rule:nonzero}*/
   ]]>
  </style>
 </defs>
 <g id="Layer_x0020_1">
  <metadata id="CorelCorpID_0Corel-Layer"/>
  <g id="_442985344">
   <path class="fil1" d="M3621 895c771,0 1471,313 1977,820l1 -1c506,506 819,1206 819,1978 0,772 -313,1472 -819,1978l-1 -1c-506,507 -1206,820 -1977,820 -772,0 -1471,-313 -1978,-819 -506,-506 -819,-1206 -819,-1978 0,-772 313,-1472 819,-1978 507,-506 1206,-819 1978,-819zm1706 1091c-436,-436 -1039,-706 -1706,-706 -666,0 -1269,270 -1705,706 -437,437 -707,1040 -707,1706 0,666 270,1269 707,1706 436,436 1039,706 1705,706 667,0 1270,-270 1706,-706l0 0c436,-437 706,-1040 706,-1706 0,-666 -270,-1269 -706,-1706l0 0z"/>
   <path class="fil1" d="M2706 2158c191,0 366,78 492,204l0 0c126,127 205,301 205,492 0,192 -79,367 -205,493l0 0c-126,126 -300,205 -492,205 -192,0 -366,-79 -492,-205l-1 0c-126,-126 -204,-300 -204,-493 0,-191 78,-365 204,-492l1 0c126,-126 300,-204 492,-204zm221 476l-1 -1c-56,-56 -134,-91 -220,-91 -87,0 -165,35 -221,91l-1 1c-56,56 -90,134 -90,220 0,87 35,165 91,221l-1 1c57,56 135,91 222,91 86,0 164,-35 220,-92l1 0c56,-56 91,-134 91,-221 0,-86 -35,-164 -91,-220z"/>
   <path class="fil1" d="M4542 2158c192,0 366,78 492,204l1 0c125,127 204,301 204,492 0,192 -79,367 -205,493l1 0c-127,126 -301,205 -493,205 -193,0 -367,-79 -493,-205l0 0c-126,-127 -204,-301 -204,-493 0,-191 78,-365 204,-491l1 -1 0 0c126,-126 300,-204 492,-204zm221 476l-1 -1c-56,-56 -134,-91 -220,-91 -87,0 -165,35 -221,91l-1 1c-55,56 -90,134 -90,220 0,87 35,165 91,222l0 -1c57,57 135,92 221,92 86,0 164,-35 220,-92l1 0c56,-56 91,-134 91,-221 0,-86 -35,-164 -91,-220z"/>
   <path class="fil1" d="M5246 4115c0,448 -182,854 -476,1148l-1 1 -3 3c-293,292 -698,473 -1145,473 -448,0 -855,-182 -1149,-476l-10 -11c-288,-294 -466,-696 -466,-1138l385 0c0,339 135,645 353,868l10 9c225,224 535,363 877,363 343,0 653,-139 877,-363 224,-224 363,-534 363,-877l385 0z"/>
  </g>
  <rect class="fil0" width="7362" height="7362"/>
 </g>
</svg>
